<?xml version="1.0" encoding="UTF-8" standalone="no"?>
<svg
   xmlns:dc="http://purl.org/dc/elements/1.1/"
   xmlns:cc="http://creativecommons.org/ns#"
   xmlns:rdf="http://www.w3.org/1999/02/22-rdf-syntax-ns#"
   xmlns:svg="http://www.w3.org/2000/svg"
   xmlns="http://www.w3.org/2000/svg"
   xmlns:sodipodi="http://sodipodi.sourceforge.net/DTD/sodipodi-0.dtd"
   xmlns:inkscape="http://www.inkscape.org/namespaces/inkscape"
   id="Layer_1"
   data-name="Layer 1"
   width="200"
   height="200"
   viewBox="0 0 200 200"
   version="1.1"
   sodipodi:docname="bot1.svg"
   inkscape:version="0.92.3 (2405546, 2018-03-11)">
  <metadata
     id="metadata4052">
    <rdf:RDF>
      <cc:Work
         rdf:about="">
        <dc:format>image/svg+xml</dc:format>
        <dc:type
           rdf:resource="http://purl.org/dc/dcmitype/StillImage" />
      </cc:Work>
    </rdf:RDF>
  </metadata>
  <sodipodi:namedview
     pagecolor="#ffffff"
     bordercolor="#666666"
     borderopacity="1"
     objecttolerance="10"
     gridtolerance="10"
     guidetolerance="10"
     inkscape:pageopacity="0"
     inkscape:pageshadow="2"
     inkscape:window-width="1920"
     inkscape:window-height="1023"
     id="namedview4050"
     showgrid="false"
     inkscape:zoom="1.668772"
     inkscape:cx="2.593368"
     inkscape:cy="62.482176"
     inkscape:window-x="0"
     inkscape:window-y="28"
     inkscape:window-maximized="1"
     inkscape:current-layer="Layer_1" />
  <defs
     id="defs3873">
    <style
       id="style3871">.cls-1{fill:#333;}.cls-2{fill:#d8d8d8;}.cls-3{fill:#343434;}.cls-4{fill:#d5d5d5;}.cls-5{fill:#fefefe;}.cls-6{fill:#9f9f9f;}.cls-7{fill:#dadada;}.cls-8{fill:#d9d9d9;}.cls-9{fill:#a0a0a0;}.cls-10{fill:#9d9d9d;}.cls-11{fill:#828282;}.cls-12{fill:#d7d7d7;}.cls-13{fill:#acacac;}.cls-14{fill:#888;}.cls-15{fill:#ababab;}.cls-16{fill:#949494;}.cls-17{fill:#9b9b9b;}.cls-18{fill:#a7a7a7;}.cls-19{fill:#efefef;}.cls-20{fill:#8f8f8f;}.cls-21{fill:#787878;}.cls-22{fill:#fafafa;}.cls-23{fill:#ececec;}.cls-24{fill:#a6e1b4;}.cls-25{fill:#353535;}.cls-26{fill:#373737;}.cls-27{fill:#fdfdfd;}.cls-28{fill:#fcfcfc;}.cls-29{fill:#e9e9e9;}.cls-30{fill:#def4e2;}</style>
  </defs>
  <title
     id="title3875">Artboard 1</title>
  <g
     id="g988"
     style="fill:#a0ee93;fill-opacity:1;stroke-linejoin:miter"
     transform="matrix(0.34366145,0,0,0.34366145,-67.569427,-112.37382)">
    <path
       inkscape:connector-curvature="0"
       id="path986"
       d="m 485.943,436.9877 c -2.1747,0 -3.93726,-2.47247 -3.93726,-5.5219 v -27.73036 c 0,-3.04989 1.76318,-5.52191 3.93736,-5.52191 2.17445,0 3.93727,2.47244 3.93727,5.52191 v 27.72931 c 4.9e-4,3.04999 -1.76282,5.52295 -3.93737,5.52295 z"
       style="fill:#a0ee93;fill-opacity:1" />
  </g>
  <g
     id="g992"
     style="fill:#637079;fill-opacity:1;stroke-linejoin:miter"
     transform="matrix(0.34366145,0,0,0.34366145,-67.569427,-112.37382)">
    <path
       inkscape:connector-curvature="0"
       id="path990"
       d="m 504.67358,390.16016 c 0,10.34521 -8.38635,18.73164 -18.73156,18.73164 -10.34522,0 -18.73154,-8.38637 -18.73154,-18.73155 0,-10.34513 8.38657,-18.7316 18.73154,-18.7316 10.34521,0 18.73156,8.38638 18.73156,18.73151 z" />
  </g>
  <g
     id="g996"
     style="fill:#637079;fill-opacity:1;stroke-linejoin:miter"
     transform="matrix(0.34366145,0,0,0.34366145,-67.569427,-112.37382)">
    <path
       inkscape:connector-curvature="0"
       id="path994"
       d="m 520.2833,428.66257 -68.68024,4.9e-4 c -5.17353,-4.9e-4 -9.36554,4.19194 -9.36554,9.36499 l 6e-5,7.28387 87.41132,3.1e-4 v -7.28418 c 0,-5.17261 -4.19333,-9.36548 -9.3656,-9.36548 z" />
  </g>
  <g
     id="g1000"
     style="fill:#231f20;fill-opacity:0.09803922;stroke-linejoin:miter"
     transform="matrix(0.34366145,0,0,0.34366145,-67.569427,-112.37382)">
    <path
       inkscape:connector-curvature="0"
       id="path998"
       d="m 475.563,390.16016 c 0,-8.909 6.22142,-16.3602 14.55577,-18.25788 -1.34337,-0.30618 -2.73864,-0.47305 -4.17492,-0.47305 -10.34571,-1.5e-4 -18.73148,8.3858 -18.73148,18.73102 0,10.34482 8.38577,18.73115 18.73173,18.7312 1.43554,0 2.8313,-0.16705 4.17467,-0.47327 -8.33483,-1.89856 -14.55577,-9.3493 -14.55577,-18.25802 z" />
  </g>
  <g
     id="g1004"
     style="fill:#231f20;fill-opacity:0.09803922;stroke-linejoin:miter"
     transform="matrix(0.34366145,0,0,0.34366145,-67.569427,-112.37382)">
    <path
       inkscape:connector-curvature="0"
       id="path1002"
       d="m 459.9537,428.66257 -8.35015,4.9e-4 c -5.17359,-4.9e-4 -9.36555,4.19194 -9.3656,9.36499 l 5e-5,7.28387 8.3506,4.8e-4 v -7.28435 c 0,-5.17261 4.19164,-9.36548 9.3651,-9.36548 z" />
  </g>
  <g
     id="g1008"
     style="fill:#637079;fill-opacity:1;stroke-linejoin:miter"
     transform="matrix(0.34366145,0,0,0.34366145,-67.569427,-112.37382)">
    <path
       inkscape:connector-curvature="0"
       id="path1006"
       d="m 506.92572,594.1065 -47.77932,5e-4 c -5.17158,-5e-4 -9.3659,-4.1942 -9.3659,-9.36603 v -5.20277 c 5e-5,-5.1721 4.19383,-9.3657 9.36595,-9.3656 l 53.59115,5e-4 c 5.1735,-6e-4 9.3659,4.193 9.3659,9.3651 l -1e-4,5.20277 c 1e-4,5.17223 -4.1922,9.36553 -9.3658,9.36553 l -5.81188,6e-4" />
  </g>
  <g
     id="g1012"
     style="fill:#231f20;fill-opacity:0.09803922;stroke-linejoin:miter"
     transform="matrix(0.34366145,0,0,0.34366145,-67.569427,-112.37382)">
    <path
       inkscape:connector-curvature="0"
       id="path1010"
       d="m 458.13113,584.74097 v -5.20277 c 0,-5.1721 4.19385,-9.3657 9.36597,-9.3657 l -8.35016,6e-4 c -5.17169,-6e-4 -9.3659,4.193 -9.3659,9.3651 l -1.4e-4,5.20277 c 0,5.17223 4.19392,9.36553 9.36604,9.36553 l 8.35016,6e-4 c -5.17218,-6e-4 -9.3661,-4.1944 -9.36597,-9.36613 z" />
  </g>
  <g
     id="g1016"
     style="fill:#637079;fill-opacity:1;stroke-linejoin:miter"
     transform="matrix(0.34366145,0,0,0.34366145,-67.569427,-112.37382)">
    <path
       inkscape:connector-curvature="0"
       id="path1014"
       d="m 402.12045,480.5592 c -12.75079,0.0731 -23.06653,12.0979 -23.06653,26.92542 0,14.82768 10.31562,26.85238 23.06641,26.92628 z" />
  </g>
  <g
     id="g1020"
     style="fill:#637079;fill-opacity:1;stroke-linejoin:miter"
     transform="matrix(0.34366145,0,0,0.34366145,-67.569427,-112.37382)">
    <path
       inkscape:connector-curvature="0"
       id="path1018"
       d="m 569.76685,480.55914 c 12.74951,0.0731 23.06655,12.09809 23.06655,26.92578 10e-5,14.82768 -10.31704,26.85238 -23.0667,26.92628 z" />
  </g>
  <g
     id="g1024"
     style="fill:#aae591;fill-opacity:1;stroke-linejoin:miter"
     transform="matrix(0.34366145,0,0,0.34366145,-67.569427,-112.37382)">
    <path
       inkscape:connector-curvature="0"
       id="path1022"
       d="m 570.75305,444.78757 -141.52701,5.5e-4 -13.12474,-3.7e-4 -14.9686,3.7e-4 c -5.17268,-4.2e-4 -9.3661,4.19293 -9.3661,9.36505 l -1.5e-4,107.70407 c 5e-5,5.17266 4.19342,9.3656 9.36609,9.36556 l 169.62036,4.7e-4 c 5.1718,-4.7e-4 9.36526,-4.19377 9.36526,-9.36621 V 454.15317 c 0,-5.17255 -4.19311,-9.3656 -9.36511,-9.3656 z"
       style="fill:#aae591;fill-opacity:1" />
  </g>
  <g
     id="g1028"
     style="fill:#637079;fill-opacity:1;stroke-linejoin:miter"
     transform="matrix(0.34366145,0,0,0.34366145,-67.569427,-112.37382)">
    <path
       inkscape:connector-curvature="0"
       id="path1026"
       d="m 453.6827,489.01404 c 0,6.32178 -5.12475,11.44659 -11.44652,11.44666 -6.32166,0 -11.44635,-5.12464 -11.44648,-11.44654 1.3e-4,-6.32159 5.12482,-11.44653 11.44648,-11.44653 6.32177,0 11.44652,5.12469 11.44652,11.44641 z" />
  </g>
  <g
     id="g1032"
     style="fill:#637079;fill-opacity:1;stroke-linejoin:miter"
     transform="matrix(0.34366145,0,0,0.34366145,-67.569427,-112.37382)">
    <path
       inkscape:connector-curvature="0"
       id="path1030"
       d="m 541.095,489.01404 c 0,6.32178 -5.12466,11.44659 -11.44656,11.44646 -6.32164,0 -11.44634,-5.12468 -11.44634,-11.44646 0,-6.3216 5.1247,-11.44641 11.44634,-11.44647 6.32166,6e-5 11.44656,5.12487 11.44656,11.44647 z" />
  </g>
  <g
     id="g1036"
     style="fill:#231f20;fill-opacity:0.09803922;stroke-linejoin:miter"
     transform="matrix(0.34366145,0,0,0.34366145,-67.569427,-112.37382)">
    <path
       inkscape:connector-curvature="0"
       id="path1034"
       d="m 386.5704,507.48456 c 1.3e-4,-10.64666 4.2351,-20.13856 10.85108,-26.3432 -10.49274,2.57489 -18.36756,13.38916 -18.36756,26.34326 0,12.95502 7.87482,23.76892 18.36744,26.34332 C 390.8055,527.6235 386.5704,518.1319 386.5704,507.48456 Z" />
  </g>
  <g
     id="g1040"
     style="fill:#231f20;fill-opacity:0.09803922;stroke-linejoin:miter"
     transform="matrix(0.34366145,0,0,0.34366145,-67.569427,-112.37382)">
    <path
       inkscape:connector-curvature="0"
       id="path1038"
       d="m 400.11807,561.85675 9e-5,-107.70358 c 0,-5.17212 4.19251,-9.36554 9.36604,-9.36547 l -8.3515,4.2e-4 c -5.17268,-4.2e-4 -9.3661,4.19293 -9.3661,9.36505 l -1.5e-4,107.70407 c 5e-5,5.17266 4.19342,9.3656 9.36609,9.36556 l 8.35058,4e-4 c -5.1726,-4e-4 -9.36517,-4.19384 -9.36505,-9.36645 z" />
  </g>
  <g
     id="g1044"
     style="fill:#231f20;fill-opacity:0.09803922;stroke-linejoin:miter"
     transform="matrix(0.34366145,0,0,0.34366145,-67.569427,-112.37382)">
    <path
       inkscape:connector-curvature="0"
       id="path1042"
       d="m 439.1412,489.01367 c 0,-4.84797 3.0152,-8.98889 7.27167,-10.65741 -1.29419,-0.50708 -2.70111,-0.78906 -4.1748,-0.78906 -6.32257,0 -11.44733,5.12494 -11.44733,11.44653 0,6.32172 5.12476,11.44641 11.44733,11.44641 1.47369,0 2.88061,-0.28198 4.1748,-0.789 -4.25697,-1.66852 -7.27154,-5.80951 -7.27167,-10.65747 z" />
  </g>
  <g
     id="g1048"
     style="fill:#231f20;fill-opacity:0.09803922;stroke-linejoin:miter"
     transform="matrix(0.34366145,0,0,0.34366145,-67.569427,-112.37382)">
    <path
       inkscape:connector-curvature="0"
       id="path1046"
       d="m 526.5526,489.0136 c 0,-4.84795 3.01515,-8.98894 7.2722,-10.65734 -1.2943,-0.50708 -2.7021,-0.78906 -4.1755,-0.78912 -6.3224,0 -11.44685,5.12482 -11.44685,11.44646 1.5e-4,6.32167 5.12445,11.44648 11.44685,11.44642 1.47387,1.2e-4 2.8812,-0.2818 4.1755,-0.78882 -4.25705,-1.66876 -7.2722,-5.80975 -7.2722,-10.6576 z" />
  </g>
  <g
     id="g1056"
     style="fill:#637079;fill-opacity:1;stroke-linejoin:miter"
     transform="matrix(0.34366145,0,0,0.24407766,-67.569427,-46.872838)">
    <path
       inkscape:connector-curvature="0"
       id="path1054"
       d="m 385.81888,892.61017 c 0,-6.63831 -4.42462,-11.06297 -11.06288,-11.06297 l 11.06294,-221.2545 -22.12457,10e-4 V 881.547 l 11.06286,22.12583 c 6.63703,0 11.06165,-4.42463 11.06165,-11.06286 z M 607.0748,660.2927 l -22.1257,10e-4 11.0642,221.25323 c -6.6383,0 -11.06286,4.4247 -11.06286,11.0629 0,6.63834 4.42456,11.06296 11.06286,11.06296 l 11.063,-22.12606 -10e-5,-221.2544 -10e-4,10e-4 z" />
  </g>
  <g
     id="g1060"
     style="fill:#aae591;fill-opacity:1;stroke-linejoin:miter"
     transform="matrix(0.34366145,0,0,0.26589103,-67.569427,-67.007869)">
    <path
       inkscape:connector-curvature="0"
       id="path1058"
       d="m 483.97498,890.8758 c 60.84545,0 109.52062,-48.67646 109.52052,-109.52045 l -1.4e-4,-198.02271 -219.04239,-10e-4 6e-5,198.0239 c 7e-5,60.84406 48.67524,109.5204 109.52195,109.5204 z"
       style="fill:#aae591;fill-opacity:1" />
  </g>
  <g
     id="g1064"
     style="fill:#637079;fill-opacity:1;stroke-linejoin:miter"
     transform="matrix(0.34366145,0,0,0.34366145,-67.569427,-112.37382)">
    <path
       inkscape:connector-curvature="0"
       id="path1062"
       d="m 485.38544,582.8537 c 12.16906,0 22.12573,9.9568 22.12573,22.12585 0,12.16905 -9.95667,22.1258 -22.12587,22.1258 -12.16914,0 -22.1258,-9.95675 -22.1258,-22.1258 0,-12.16905 9.95544,-22.12585 22.12594,-22.12585 z" />
  </g>
  <g
     id="g1068"
     style="fill:#637079;fill-opacity:1;stroke-linejoin:miter"
     transform="matrix(0.34366145,0,0,0.34366145,-67.569427,-112.37382)">
    <path
       inkscape:connector-curvature="0"
       id="path1066"
       d="m 367.87228,662.37726 v 10e-4 l -4.23785,23.20034 231.27133,-3.15884 V 660.2927 l -225.21286,0.5402 6.17053,-0.5402 z" />
  </g>
  <g
     id="g1072"
     style="fill:#637079;fill-opacity:1;stroke-linejoin:miter"
     transform="matrix(0.34366145,0,0,0.22835478,-67.569427,-31.773062)">
    <path
       inkscape:connector-curvature="0"
       id="path1070"
       d="m 518.5733,715.6064 h -10e-4 l -2.4e-4,110.6282 h 22.12714 l -10e-4,-110.62815 -22.1247,-5e-5 h -10e-4 z" />
  </g>
  <g
     id="g1076"
     style="fill:#637079;fill-opacity:1;stroke-linejoin:miter"
     transform="matrix(0.34366145,0,0,0.22835478,-67.569427,-31.773062)">
    <path
       inkscape:connector-curvature="0"
       id="path1074"
       d="m 474.32175,715.6064 h -0.001 l -1.9e-4,110.6282 h 22.12699 l -9.8e-4,-110.6282 h -22.1246 -0.001 z" />
  </g>
  <g
     id="g1080"
     style="fill:#637079;fill-opacity:1;stroke-linejoin:miter"
     transform="matrix(0.34366145,0,0,0.22835478,-67.569427,-31.773062)">
    <path
       inkscape:connector-curvature="0"
       id="path1078"
       d="m 430.07138,715.60626 h -10e-4 l -2.4e-4,110.62824 h 22.12712 l -0.001,-110.6281 -22.12457,-1.4e-4 h -10e-4 z" />
  </g>
  <g
     id="g3026"
     style="fill:#f8f8f8;fill-opacity:1;stroke-linejoin:miter"
     transform="matrix(0,0.34366145,-0.34366145,0,273.02007,-128.81182)">
    <path
       style="fill:#f8f8f8;fill-opacity:1"
       inkscape:connector-curvature="0"
       id="path3024"
       d="m 569.76685,480.55914 c 12.74951,0.0731 23.06655,12.09809 23.06655,26.92578 10e-5,14.82768 -10.31704,26.85238 -23.0667,26.92628 z" />
  </g>
</svg>
